<svg id="Layer_1" data-name="Layer 1" xmlns="http://www.w3.org/2000/svg" xmlns:xlink="http://www.w3.org/1999/xlink" viewBox="0 0 110 110"><defs><style>.cls-1{fill:url(#linear-gradient);}.cls-2{fill:#fff;}</style><linearGradient id="linear-gradient" x1="2.47" y1="103.51" x2="103.76" y2="9.96" gradientUnits="userSpaceOnUse"><stop offset="0" stop-color="#f37329"/><stop offset="1" stop-color="#ffa154"/></linearGradient></defs><rect class="cls-1" x="2.83" y="2.83" width="104.33" height="104.33" rx="52.17"/><path class="cls-2" d="M79.43,49.64s2.12-.78,2.46-4.15a8.53,8.53,0,0,0-.57-3.92c-.82-2-2.39-6-2.39-6.82,0,0-.27,4.42.83,7.21a9.69,9.69,0,0,1,.6,4.69A7.93,7.93,0,0,1,79.43,49.64Z"/><path class="cls-2" d="M76.06,48.16s2.47.27,2.5-4.06a10.14,10.14,0,0,0-.65-3.64,30.59,30.59,0,0,1-1.85-6.84,29.49,29.49,0,0,1,.4-6.36s-2.31,1.79-1.91,7.18a18.22,18.22,0,0,0,.56,3.18c.29,1.08.77,2.75,1.52,4.83A6.94,6.94,0,0,1,77,45.73,5.5,5.5,0,0,1,76.06,48.16Z"/><path class="cls-2" d="M73.16,36.78a28.13,28.13,0,0,0,1.19,3.71,6.29,6.29,0,0,1,.4,3.51c-.16.92-.53,1.72-1.34,1.72a8.89,8.89,0,0,0,.18-3,3.46,3.46,0,0,0-.19-.8A9.89,9.89,0,0,1,73.16,36.78Z"/><path class="cls-2" d="M51.66,40.4a.6.6,0,0,0,.49-.4.57.57,0,0,0-.38-.73c-8.1-2.59-15.62,1.8-15.93,2a.58.58,0,0,0,.59,1c.08,0,7.4-4.3,15-1.88A.49.49,0,0,0,51.66,40.4Z"/><path class="cls-2" d="M29.14,47c-.2.12-5,3.1-5.73,7.17a.58.58,0,0,0,.47.68h.17a.59.59,0,0,0,.51-.48c.66-3.55,5.15-6.36,5.2-6.39a.58.58,0,1,0-.62-1Z"/><path class="cls-2" d="M59.93,44.25s5.1,1.63,6.61,4.91a.59.59,0,0,0,.61.34l.17,0a.59.59,0,0,0,.28-.78c-1.73-3.76-7.1-5.47-7.32-5.54a.58.58,0,0,0-.73.38A.59.59,0,0,0,59.93,44.25Z"/><path class="cls-2" d="M20.75,60.55a.59.59,0,0,0-.76.32,11.28,11.28,0,0,0-.51,6.74.59.59,0,0,0,.63.4l.1,0a.59.59,0,0,0,.39-.73c-.84-2.71.46-5.91.47-6A.58.58,0,0,0,20.75,60.55Z"/><path class="cls-2" d="M36.82,48.77a.58.58,0,0,0-.65-.5h0a.58.58,0,0,0-.5.65c0,.23.77,5.75,4.8,8.55a.58.58,0,0,0,.4.09.55.55,0,0,0,.41-.24.58.58,0,0,0-.14-.81C37.53,54,36.82,48.82,36.82,48.77Z"/><path class="cls-2" d="M52.9,46.17h0a.58.58,0,0,0-.5.65s.6,5.26-2.27,8.56a.58.58,0,0,0,0,.82.58.58,0,0,0,.46.14.57.57,0,0,0,.37-.2c3.22-3.7,2.57-9.23,2.55-9.46A.59.59,0,0,0,52.9,46.17Z"/><path class="cls-2" d="M94.53,67.52C94.07,64,90.28,61,88.4,59.66a6.89,6.89,0,0,0-2-3.59c-3.72-3.42-9.62-3.59-11.1-3.57a5.28,5.28,0,0,0-3-2.19c-.57-.55-1.09-1-1.52-1.39a8.43,8.43,0,0,0-2-4.7c-4.13-4.75-11.42-5.72-13.25-5.91-2.44-5.14-11.63-4.26-12.06-4.21C34,35.29,32,39.41,31.56,41.4c-2.22.84-8.42,3.58-11.1,8.87A8.58,8.58,0,0,0,19.63,55c-1.26,1.74-5.1,7.48-4,12.21,0,.17,1,4.11,4.38,5.1a3.24,3.24,0,0,0,1.3.11,6,6,0,0,0,2.63-1.21,15.48,15.48,0,0,0,4.75-5.6,8.23,8.23,0,0,0,2.27,0,9.19,9.19,0,0,0,1.74-.41,13.18,13.18,0,0,0,6.08-4.87,12.77,12.77,0,0,0,7.09,1.14,16.68,16.68,0,0,0,7.52-3.11l.34.26a14.59,14.59,0,0,0-5.44,6.42,6.88,6.88,0,0,0-.24,3.85c-.87,1.48-3.44,6.4-2.15,10.09,0,.13,1.14,3.2,3.94,3.7a2.72,2.72,0,0,0,1,0,4.55,4.55,0,0,0,2-1.19,12.3,12.3,0,0,0,3.32-4.87A7.31,7.31,0,0,0,58,76.44,7.11,7.11,0,0,0,59.36,76a10.49,10.49,0,0,0,4.43-4.41,10.23,10.23,0,0,0,5.77.3,13.38,13.38,0,0,0,5.73-3.14,10.7,10.7,0,0,0,6.08,2.06,6.91,6.91,0,0,0,1.43-.18A7.29,7.29,0,0,0,84.3,70a12.57,12.57,0,0,0,5.1,2.84,4.66,4.66,0,0,0,2.32.16,2.37,2.37,0,0,0,.94-.44C94.94,70.9,94.54,67.66,94.53,67.52ZM22.79,69.63c-1,.72-1.68,1-2.23.81-2.3-.67-3-3.65-3-3.68-.72-3.09,1.32-7,2.73-9.22a16.25,16.25,0,0,0,2.5,4.52,10.09,10.09,0,0,0,4,3A13.65,13.65,0,0,1,22.79,69.63Zm9.26-6.25a6.24,6.24,0,0,1-3.68.17,7.84,7.84,0,0,1-4.1-2.73,14.53,14.53,0,0,1-2.41-4.58,9.18,9.18,0,0,1-.26-1.12,6.59,6.59,0,0,1,.6-4c2.12-4.18,7-6.64,9.3-7.63.36,6.24,1.69,10.18,2.78,12.4a9.39,9.39,0,0,0,2.82,3.43A11.2,11.2,0,0,1,32.05,63.38Zm20.7-7a5.45,5.45,0,0,1-.46.38c-2,1.48-7.25,4.59-13,1.65-.09,0-.18-.11-.29-.16A7.3,7.3,0,0,1,36,55.06c-1.05-2.17-2.38-6.14-2.64-12.72v-.15c.08-.82.87-5,10.32-6.15.09,0,9.13-.89,10.34,3.78,0,.11,2.43,10.1-.29,15.26A5.42,5.42,0,0,1,52.75,56.38Zm2.06.64a7.09,7.09,0,0,0,.67-1A17,17,0,0,0,57,48.27a43,43,0,0,0-.84-7.93c2.38.34,8,1.48,11.19,5.16a6.59,6.59,0,0,1,1.57,4v.29l0,.06a18.71,18.71,0,0,0-3.58.36c-7.46,1.75-8.73,5.22-8.91,6.84-.25.12-.55.29-.92.5A7.64,7.64,0,0,1,54.81,57Zm-3,23.3c-.74.65-1.27.93-1.73.84-1.89-.34-2.73-2.64-2.73-2.68-.84-2.41.45-5.71,1.39-7.6a12.38,12.38,0,0,0,2.38,3.39,8,8,0,0,0,3.46,2.06A10.89,10.89,0,0,1,51.84,80.32Zm6.84-5.77a5.13,5.13,0,0,1-2.92.44,6.27,6.27,0,0,1-3.51-1.82,11.4,11.4,0,0,1-2.32-3.46,6,6,0,0,1-.29-.88,5.35,5.35,0,0,1,.12-3.22,13.44,13.44,0,0,1,5.31-6c.55-.37,1.07-.67,1.47-.9.12.68.24,1.34.38,2a24.07,24.07,0,0,0,2.9,7.71,7.49,7.49,0,0,0,2.55,2.49A9.08,9.08,0,0,1,58.68,74.55ZM75.3,66a4,4,0,0,1-.68,1.13c-.11.12-.23.24-.34.34C72.81,68.87,68.88,71.81,64,70a1.2,1.2,0,0,1-.23-.11,5.72,5.72,0,0,1-2.61-2.29,21.26,21.26,0,0,1-2.47-6.2c-.17-.68-.34-1.45-.49-2.26-.08-.45-.17-1-.25-1.46a.68.68,0,0,0,0-.12c0-.68.27-4,7.71-5.81a18.37,18.37,0,0,1,3.17-.3,9.3,9.3,0,0,1,2,.15h0a4,4,0,0,1,3.42,2.29c0,.06,2.17,6,1.54,10.46A7.16,7.16,0,0,1,75.3,66ZM84,68.39a4.81,4.81,0,0,1-2.64.8,8.87,8.87,0,0,1-5-1.7,5.07,5.07,0,0,0,.44-.87,11.28,11.28,0,0,0,.68-4.12,19.09,19.09,0,0,0-.13-2.15A30.38,30.38,0,0,0,76.51,56s0,0,0,0c-.21-.78-.41-1.45-.56-1.92,1.93.06,6.52.5,9.39,3.16a5.39,5.39,0,0,1,1.6,3,.91.91,0,0,0,0,.23l0,.06.06,0c0,.12,0,.24,0,.37a11.26,11.26,0,0,1-.52,4.13A6.22,6.22,0,0,1,84,68.39Zm7.73,3c-.37.27-1,.29-1.91,0a10.86,10.86,0,0,1-4.18-2.22A8.17,8.17,0,0,0,88,65.58a12.42,12.42,0,0,0,.63-3.85c2.12,1.67,4.12,3.9,4.4,6C93,67.75,93.26,70.19,91.72,71.34Z"/><path class="cls-2" d="M72.72,54.13a.47.47,0,0,0-.36-.55,11.87,11.87,0,0,0-1.91-.24,15.1,15.1,0,0,0-2,0,18.24,18.24,0,0,0-8.62,3.19.47.47,0,0,0-.1.66.48.48,0,0,0,.66.09,17.59,17.59,0,0,1,7.76-2.95,10.1,10.1,0,0,1,2.07-.07,4.78,4.78,0,0,1,.66,0,8.39,8.39,0,0,1,.86.1l.45.09h.2A.44.44,0,0,0,72.72,54.13Z"/><path class="cls-2" d="M55,61.73c-.15.11-3.71,2.91-4,6.22a.46.46,0,0,0,.43.5.38.38,0,0,0,.15,0,.47.47,0,0,0,.36-.42c.22-2.9,3.57-5.52,3.6-5.55a.47.47,0,1,0-.58-.74Z"/><path class="cls-2" d="M79.48,55.94a.47.47,0,0,0-.55.37.47.47,0,0,0,.37.55s4.21.86,5.71,3.36a.45.45,0,0,0,.51.21l.13,0a.47.47,0,0,0,.16-.65C84.1,56.88,79.67,56,79.48,55.94Z"/><path class="cls-2" d="M49.74,73.83a.47.47,0,0,0-.9-.26A9,9,0,0,0,49,79a.47.47,0,0,0,.54.28l.07,0a.47.47,0,0,0,.25-.62A8.21,8.21,0,0,1,49.74,73.83Z"/><path class="cls-2" d="M88.92,63.93a.47.47,0,0,0,0,.66,8.24,8.24,0,0,1,2,4.35.46.46,0,0,0,.49.44h.08a.47.47,0,0,0,.36-.49A9.09,9.09,0,0,0,89.58,64,.46.46,0,0,0,88.92,63.93Z"/><path class="cls-2" d="M61.23,62.46a.47.47,0,0,0-.56-.35h0a.48.48,0,0,0-.35.57c0,.18,1.11,4.53,4.57,6.41a.48.48,0,0,0,.33,0,.47.47,0,0,0,.12-.87C62.25,66.58,61.24,62.5,61.23,62.46Z"/><path class="cls-2" d="M74,59h-.11l-.12,0a.51.51,0,0,0-.23.52,10.19,10.19,0,0,1,.2,1.58v0a11,11,0,0,1-.12,2.5,7.57,7.57,0,0,1-.77,2.26,3.13,3.13,0,0,1-.38.66.47.47,0,0,0,.13.66.46.46,0,0,0,.36.07.44.44,0,0,0,.28-.2A7.13,7.13,0,0,0,74,65.69a9.39,9.39,0,0,0,.68-3.21h0a12,12,0,0,0-.24-3.12A.48.48,0,0,0,74,59Z"/></svg>